HIERARCHY
ROOT root
{
	OFFSET 0.000000 0.000000 0.000000
	CHANNELS 6 Xposition Yposition Zposition Zrotation Yrotation Xrotation
	JOINT lhip
	{
		OFFSET 0.058581 -0.082280 -0.017664
		CHANNELS 3 Zrotation Yrotation Xrotation
		JOINT lknee
		{
			OFFSET 0.043451 -0.386469 0.008037
			CHANNELS 3 Zrotation Yrotation Xrotation
			JOINT lankle
			{
				OFFSET -0.014790 -0.426874 -0.037428
				CHANNELS 3 Zrotation Yrotation Xrotation
				JOINT ltoe
				{
					OFFSET 0.041054 -0.060286 0.122042
					CHANNELS 3 Zrotation Yrotation Xrotation
					End Site
					{
						OFFSET 0.000000 0.000000 0.000000
					}
				}
			}
		}
	}
	JOINT rhip
	{
		OFFSET -0.060310 -0.090513 -0.013543
		CHANNELS 3 Zrotation Yrotation Xrotation
		JOINT rknee
		{
			OFFSET -0.043257 -0.383688 -0.004843
			CHANNELS 3 Zrotation Yrotation Xrotation
			JOINT rankle
			{
				OFFSET 0.019056 -0.420046 -0.034562
				CHANNELS 3 Zrotation Yrotation Xrotation
				JOINT rtoe
				{
					OFFSET -0.034840 -0.062106 0.130323
					CHANNELS 3 Zrotation Yrotation Xrotation
					End Site
					{
						OFFSET 0.000000 0.000000 0.000000
					}
				}
			}
		}
	}
	JOINT lowerback
	{
		OFFSET 0.004439 0.124404 -0.038385
		CHANNELS 3 Zrotation Yrotation Xrotation
		JOINT upperback
		{
			OFFSET 0.004488 0.137956 0.026820
			CHANNELS 3 Zrotation Yrotation Xrotation
			JOINT chest
			{
				OFFSET -0.002265 0.056032 0.002855
				CHANNELS 3 Zrotation Yrotation Xrotation
				JOINT lowerneck
				{
					OFFSET -0.013390 0.211636 -0.033468
					CHANNELS 3 Zrotation Yrotation Xrotation
					JOINT upperneck
					{
						OFFSET 0.010113 0.088937 0.050410
						CHANNELS 3 Zrotation Yrotation Xrotation
						End Site
						{
							OFFSET 0.000000 0.000000 0.000000
						}
					}
				}
				JOINT lclavicle
				{
					OFFSET 0.071702 0.114000 -0.018898
					CHANNELS 3 Zrotation Yrotation Xrotation
					JOINT lshoulder
					{
						OFFSET 0.122921 0.045205 -0.019046
						CHANNELS 3 Zrotation Yrotation Xrotation
						JOINT lelbow
						{
							OFFSET 0.255332 -0.015649 -0.022946
							CHANNELS 3 Zrotation Yrotation Xrotation
							JOINT lwrist
							{
								OFFSET 0.265709 0.012698 -0.007375
								CHANNELS 3 Zrotation Yrotation Xrotation
								End Site
								{
									OFFSET 0.000000 0.000000 0.000000
								}
							}
						}
					}
				}
				JOINT rclavicle
				{
					OFFSET -0.082954 0.112472 -0.023707
					CHANNELS 3 Zrotation Yrotation Xrotation
					JOINT rshoulder
					{
						OFFSET -0.113228 0.046853 -0.008472
						CHANNELS 3 Zrotation Yrotation Xrotation
						JOINT relbow
						{
							OFFSET -0.260127 -0.014369 -0.031269
							CHANNELS 3 Zrotation Yrotation Xrotation
							JOINT rwrist
							{
								OFFSET -0.269108 0.006794 -0.006027
								CHANNELS 3 Zrotation Yrotation Xrotation
								End Site
								{
									OFFSET 0.000000 0.000000 0.000000
								}
							}
						}
					}
				}
			}
		}
	}
}
MOTION
Frames: 17
Frame Time: 0.033333
-1.039856 0.676900 0.899637 155.656943 -10.327255 89.611829 14.179303 -1.718953 -16.239558 -17.756153 -13.035379 68.167254 -16.914322 -3.495384 14.170729 0.000000 -0.000000 0.000000 4.222789 1.837882 -25.524767 -6.554387 -14.332962 50.582088 -6.205119 -27.248631 -32.121529 0.000000 -0.000000 0.000000 -8.321269 0.897304 11.488600 3.731202 -7.170707 6.566248 -0.363504 -5.090990 -5.676558 7.245700 -14.985254 -0.730941 14.013153 -24.162657 -7.634851 -15.217972 -8.353814 13.647186 -32.099029 17.828973 6.593193 -18.126682 -30.847414 45.949393 -22.703819 -10.339150 14.107390 14.126919 14.529446 2.937482 44.156322 5.848447 -1.567593 -89.189619 74.222362 -71.238163 4.968625 20.861908 -21.242380 
-0.994366 0.687928 0.913666 146.809463 -9.577737 88.803973 11.441759 -2.386816 -19.832610 -19.222133 -9.456396 79.620892 -17.770394 -3.603197 12.664475 0.000000 -0.000000 0.000000 8.676811 2.321987 -17.758328 -4.202157 -9.169208 43.866733 -7.594542 -24.521426 -31.102959 0.000000 -0.000000 0.000000 -6.658111 2.943423 12.520495 3.180108 -6.993693 5.133015 -0.370699 -4.469810 -5.648473 6.440524 -15.442663 1.495145 12.549605 -21.444495 -6.121337 -13.189321 -9.616366 11.727716 -31.341414 22.708006 3.191641 -13.802424 -23.181431 42.899741 -31.998655 -6.852178 20.533818 6.690854 17.763806 -0.979949 35.686846 9.493797 -4.721716 -123.146030 75.478442 -103.812682 3.498316 23.376406 -22.217452 
-0.950959 0.699943 0.935545 137.182519 -9.319882 89.775622 8.125567 -5.148199 -25.461605 -16.743337 -4.232211 86.574858 -15.971733 -1.457007 8.053599 0.000000 -0.000000 0.000000 10.211850 1.932751 -10.784870 -0.881283 -2.542310 36.415551 -7.220495 -19.905244 -27.386375 0.000000 -0.000000 0.000000 -4.522858 4.795271 11.687442 2.102194 -6.608368 3.199819 -0.914706 -2.991704 -4.622792 5.056332 -16.161210 3.072532 10.755296 -17.731522 -4.129256 -10.797603 -11.023408 9.658216 -30.959617 27.848074 2.206415 -9.555012 -17.623189 37.804344 -32.051907 -7.426611 27.544858 -1.203435 20.889796 -3.684932 25.597792 13.570739 -7.474409 -142.723010 75.420895 -122.874297 4.093014 24.702160 -21.632850 
-0.911541 0.708943 0.965136 124.069052 -9.732104 91.626851 4.793753 -7.546864 -31.214314 -15.119356 0.756002 90.054226 -13.458972 -0.590734 4.543218 0.000000 -0.000000 0.000000 8.126611 3.169676 -6.255939 2.134307 3.120679 32.644628 -4.369107 -12.600782 -19.494764 0.000000 -0.000000 0.000000 -2.994087 8.069462 10.717404 0.564464 -4.309581 2.439662 -1.716231 -1.775479 -3.726459 5.064261 -15.618701 3.324294 7.355902 -15.046721 -1.542723 -6.906045 -10.821953 7.740258 -31.194070 31.542686 2.799434 -7.460856 -14.204748 33.236742 -29.168104 -10.354502 30.243729 -10.293441 23.299407 -9.109598 19.252263 18.694435 -7.723364 -152.396195 77.080180 -132.066902 6.872136 25.935581 -16.964906 
-0.864756 0.718136 0.997745 108.909154 -9.203476 92.472267 2.726205 -7.981398 -34.298788 -14.310833 2.669099 89.475203 -12.578358 -0.663007 2.583529 0.000000 -0.000000 0.000000 5.111947 0.757006 -3.830034 4.068223 7.314915 33.452576 0.202242 -4.375101 -6.010304 0.000000 -0.000000 0.000000 -0.622061 11.374816 10.964691 -1.419300 -1.500739 2.464652 -2.179121 0.570305 -3.325134 3.574754 -15.026507 5.688591 5.753230 -11.076601 -1.533594 -3.556505 -11.129176 7.500000 -33.647663 36.296558 1.648883 -5.078887 -11.573022 29.681186 -24.512963 -13.823515 29.177077 -19.626107 26.282111 -12.062037 14.147274 24.439655 -10.834788 -163.626208 79.932943 -142.898292 7.900350 25.380428 -15.102866 
-0.817931 0.726697 1.026465 92.886511 -8.330728 93.338997 1.746305 -8.590100 -36.754847 -13.810135 3.132426 86.821061 -10.693753 -0.429300 0.338015 0.000000 -0.000000 0.000000 1.925355 -1.582025 -5.911447 4.429214 7.209921 39.500971 3.336219 -3.623729 3.236429 0.000000 -0.000000 0.000000 2.178485 12.738651 12.547876 -3.940325 1.997158 2.135935 -2.700265 2.451228 -3.436875 1.513659 -13.640116 7.458027 2.684348 -4.157568 -2.420311 -0.248445 -9.556605 8.212223 -37.860507 41.781983 -1.135855 -4.131202 -10.332240 33.746462 -26.032546 -12.656836 25.820393 -30.347272 29.058959 -15.824343 10.730621 33.552949 -15.072132 -172.655073 85.336066 -152.378549 8.477413 24.300247 -15.035071 
-0.771084 0.736109 1.043228 77.447513 -7.828980 94.614304 2.129754 -10.066139 -39.825347 -13.933392 2.819718 83.139151 -8.864695 -0.136535 -1.771349 0.000000 -0.000000 0.000000 -0.914936 -3.574972 -11.025707 0.202326 1.318272 45.766798 0.002484 -14.031484 -0.757225 0.000000 -0.000000 0.000000 3.528463 12.464465 14.677702 -6.361001 5.295823 -0.592011 -3.177160 4.812980 -1.565726 1.411884 -10.071926 5.702651 -1.240647 1.708412 -3.247548 3.379645 -5.193848 9.508371 -41.300848 44.825809 -1.847544 -4.490562 -9.931509 42.530973 -26.804561 -14.288247 18.053397 -38.167116 29.046790 -18.160906 1.301977 46.465403 -23.395779 -9.790270 85.116531 11.258777 6.780417 26.343827 -12.455841 
-0.720435 0.745187 1.052347 62.381029 -7.447819 95.773920 3.158962 -10.155322 -41.949464 -14.485107 0.000385 78.674379 -9.162931 -1.003727 -1.726895 0.000000 -0.000000 0.000000 -3.254981 -7.111893 -14.897495 -4.395396 -4.235451 46.315338 -1.152355 -16.231786 -3.373616 0.000000 -0.000000 0.000000 4.367672 13.078395 16.987594 -8.864174 7.818765 -2.353368 -3.997246 6.563882 -1.508538 1.210587 -6.069731 5.012838 -3.936924 5.295672 -3.941432 6.115213 -2.686381 10.961575 -44.798895 48.472195 -3.389530 -5.265326 -9.800925 47.607841 -30.708678 -14.949974 10.863006 -42.937956 30.041384 -26.041870 -1.092754 60.114007 -29.806028 -3.319322 74.617878 18.257338 14.737319 23.949588 -4.385026 
-0.669941 0.756669 1.051993 48.301958 -7.170757 97.921211 6.362355 -10.265587 -44.173042 -14.872739 -2.212273 73.566270 -8.758368 -2.259609 -1.310240 0.000000 -0.000000 0.000000 -4.567054 -10.537126 -19.208946 -4.366500 -9.246137 44.576235 1.045870 -14.377929 -4.674221 0.000000 -0.000000 0.000000 3.929381 14.059808 16.813798 -10.342947 9.900235 -1.115077 -5.288286 8.321606 -2.650855 1.241083 -0.744142 4.323295 -5.975013 5.802712 -4.884114 8.528413 -0.369334 11.852526 -49.907716 50.042802 -6.533061 -3.775029 -11.536926 49.358116 -30.248485 -16.987308 4.106309 -44.475667 32.547190 -28.914048 -4.305379 73.291575 -39.055161 -15.928984 67.247421 9.340618 18.963266 19.279955 0.805584 
-0.618577 0.765435 1.042231 35.525367 -7.008569 99.708766 9.887066 -9.320110 -44.595311 -13.395813 -3.746106 67.911798 -7.505557 -1.913127 -2.239756 0.000000 -0.000000 0.000000 -4.703507 -13.261854 -22.666311 -3.350981 -14.226227 43.138033 2.189467 -12.210081 -6.276260 0.000000 -0.000000 0.000000 2.357682 14.923465 15.598786 -11.171765 11.708819 2.152559 -6.230826 10.384407 -5.253178 0.178281 3.745633 3.789040 -6.210565 5.250899 -5.740747 9.005799 -0.131186 11.987837 -54.374826 50.662042 -11.616508 -1.681748 -13.638836 44.409915 -24.494560 -18.668277 -2.567152 -41.930012 40.133167 -27.371538 -8.139003 82.726040 -49.483872 -23.729023 63.977722 0.229092 13.797930 19.042248 -3.503910 
-0.568354 0.774570 1.022246 24.461191 -7.122129 100.582974 13.227534 -7.615308 -43.315719 -11.122363 -4.247274 62.216427 -5.935546 -0.584126 -4.916504 0.000000 -0.000000 0.000000 -3.937916 -14.096302 -25.124752 -3.970211 -17.174269 43.086499 1.849626 -10.427503 -6.606132 0.000000 -0.000000 0.000000 -0.002980 15.626578 15.624297 -11.780012 13.542511 4.048895 -6.516517 12.382534 -7.175533 -1.217193 7.046324 1.285681 -5.233945 3.384698 -3.958526 6.580686 -0.083836 11.070983 -53.185675 48.382802 -13.811250 0.604793 -14.874190 33.338900 -17.185356 -18.285563 -7.288543 -32.341953 48.200780 -19.317816 33.055493 88.570543 -11.991763 -26.606941 65.250877 -6.677414 5.620958 23.182985 -13.314554 
-0.516133 0.785129 0.990648 16.673981 -7.576318 100.676698 15.875863 -6.179020 -41.728936 -10.015227 -4.614676 57.099171 -4.550161 0.559518 -7.482439 0.000000 -0.000000 0.000000 -3.662096 -13.567776 -26.145468 -7.466213 -19.623254 43.193606 0.248970 -17.787532 -15.067207 0.000000 -0.000000 0.000000 -1.451086 15.958207 16.105317 -11.812694 14.605296 5.318618 -5.989701 12.336552 -7.274759 -3.127839 7.476988 -1.480450 -5.133254 3.973387 -1.970408 1.462788 -0.005514 9.891288 -48.501853 44.738897 -14.249511 2.213627 -16.741994 21.763460 -10.895811 -14.441243 -8.199775 -19.227734 52.119711 -10.171557 89.170923 81.495854 42.830932 -31.615404 67.979965 -11.609456 10.315034 26.005445 -8.507703 
-0.462428 0.799400 0.952316 12.320418 -7.657552 100.836969 17.865378 -4.051526 -41.742385 -11.473567 -6.792282 53.894845 -6.693253 -0.777705 -7.306741 0.000000 -0.000000 0.000000 -4.294618 -9.054951 -28.338979 -10.874761 -11.951164 45.736786 -0.217164 -22.905310 -22.805954 0.000000 -0.000000 0.000000 -2.267299 14.055647 17.169253 -11.241818 14.373129 4.637248 -5.072946 10.937279 -4.986438 -3.905074 8.045032 -6.026521 -5.441179 5.198460 -0.003255 -2.200136 2.901011 6.308831 -43.780260 38.786986 -12.323070 3.684121 -18.887058 17.082219 -1.647621 -12.513060 -10.630579 -9.628934 48.393667 -4.410289 86.075785 72.498307 39.676563 -25.638150 65.214078 -7.375623 8.451607 27.458151 -12.398797 
-0.406115 0.816675 0.913318 10.490373 -6.105394 100.445545 19.468244 -1.239283 -42.580630 -13.551691 -9.129162 53.844253 -10.221741 -3.104373 -4.668671 0.000000 -0.000000 0.000000 -6.339901 -1.123868 -30.355884 -10.275000 -1.824924 52.126270 1.200924 -24.239104 -26.537014 0.000000 -0.000000 0.000000 -1.143941 9.873780 18.518636 -9.679244 13.122579 3.508929 -4.507601 9.823821 -2.935637 -4.522724 7.340611 -6.279939 -4.983939 5.445321 0.138954 -4.130322 4.362263 3.608008 -44.008034 31.642504 -12.475791 5.190575 -20.972030 14.228325 1.029598 -10.265931 -11.327220 -3.414509 44.035282 0.074458 74.226429 64.284898 26.647936 -18.746428 52.598022 -2.799471 10.514746 22.816489 -11.240770 
-0.343442 0.835582 0.885567 8.360270 -3.632129 101.820988 21.264017 1.014961 -43.186281 -13.709359 -6.406977 54.615388 -12.092423 -3.185465 -4.750222 0.000000 -0.000000 0.000000 -9.345287 1.613700 -34.185784 -10.211560 -1.045926 55.532742 1.873127 -23.086833 -26.246850 0.000000 -0.000000 0.000000 -0.656460 6.402059 18.451187 -7.767520 11.185751 4.035694 -3.808109 8.649234 -4.050112 -5.062381 5.085578 -5.394860 -4.162850 4.436276 -0.977524 -7.288456 3.945818 4.602359 -45.228924 22.684194 -11.166778 7.206607 -23.805973 10.911548 0.454391 -9.833846 -14.933037 3.203227 39.839314 5.362089 63.069514 56.479965 13.781488 -19.409299 31.723077 -4.851972 14.918287 16.953002 -9.205408 
-0.278028 0.850277 0.874745 3.716444 0.545497 101.916860 22.608830 5.130021 -39.224069 -14.048044 -2.930782 54.973438 -8.119905 -1.715091 -19.150319 0.000000 -0.000000 0.000000 -10.874749 0.670347 -35.681536 -7.934284 0.117575 53.778736 5.390168 -18.006390 -24.596620 0.000000 -0.000000 0.000000 -1.951881 6.288951 20.015549 -5.336565 9.124584 5.112264 -1.692144 6.933230 -5.719111 -4.048548 2.316510 -5.185210 -1.494219 3.380312 -4.870029 -13.314194 -2.392113 7.611513 -42.703995 15.535848 -7.833006 7.734401 -25.904532 5.802570 10.911489 -9.967067 -12.615991 8.791419 36.163246 8.534616 48.471026 43.525376 -1.108167 -21.582409 17.191723 -18.908515 5.594163 12.623125 -17.813955 
-0.205670 0.863808 0.880436 -1.237136 5.051054 102.099676 23.568009 7.794784 -37.543213 -15.662459 -0.519608 54.918673 -5.882968 0.568593 -26.479666 0.000000 -0.000000 0.000000 -13.137600 -2.829609 -34.239244 -2.415930 2.029886 44.069774 9.557418 -11.731838 -19.775669 0.000000 -0.000000 0.000000 -3.421908 7.816383 21.429784 -3.189886 5.984585 7.518489 -0.434046 4.722507 -7.217100 -1.656457 1.387314 -6.747496 2.080305 2.783568 -9.695655 -22.996887 -11.538516 11.906940 -28.567862 10.084379 -3.013769 6.897315 -28.443350 -3.975623 20.560005 -14.467069 -8.406454 15.886970 32.146516 10.907429 31.698936 24.493571 -11.971631 -21.332573 14.145647 -38.965276 -6.105576 9.339198 -28.600084 
